<svg id="Capa_1" data-name="Capa 1" xmlns="http://www.w3.org/2000/svg" viewBox="0 0 487.99 232.82"><defs><style>.cls-1,.cls-2,.cls-3,.cls-5{stroke:#1d1d1b;stroke-miterlimit:10;}.cls-2{fill:#f4f4f4;}.cls-3{fill:#6cb644;}.cls-4{fill:#1e1e1e;}.cls-5{fill:#7a7a7a;}</style></defs><rect class="cls-1" x="71.31" y="218.48" width="13.85" height="13.85"/><rect class="cls-1" x="402.83" y="218.48" width="13.85" height="13.85"/><path class="cls-2" d="M68.94.5H419a68.44,68.44,0,0,1,68.44,68.44V126.7a0,0,0,0,1,0,0H.5a0,0,0,0,1,0,0V68.94A68.44,68.44,0,0,1,68.94.5Z"/><path class="cls-3" d="M.5,122.35h487a0,0,0,0,1,0,0v79.32a22,22,0,0,1-22,22H22.46a22,22,0,0,1-22-22V122.35a0,0,0,0,1,0,0Z"/><path class="cls-4" d="M447.14,197.51h40.35a0,0,0,0,1,0,0v6.33a19.78,19.78,0,0,1-19.78,19.78H427.36a0,0,0,0,1,0,0v-6.33A19.78,19.78,0,0,1,447.14,197.51Z"/><path class="cls-4" d="M.5,197.51H40.85a19.78,19.78,0,0,1,19.78,19.78v6.33a0,0,0,0,1,0,0H20.28A19.78,19.78,0,0,1,.5,203.84v-6.33a0,0,0,0,1,0,0Z"/><path class="cls-5" d="M60,10.39H76.26a4.55,4.55,0,0,1,4.55,4.55v87.82a4.55,4.55,0,0,1-4.55,4.55H8.61a4.55,4.55,0,0,1-4.55-4.55V66.37A56,56,0,0,1,60,10.39Z"/><rect class="cls-1" x="95.84" y="10.39" width="64.88" height="213.23"/><rect class="cls-1" x="327.27" y="10.39" width="64.88" height="213.23"/><path class="cls-5" d="M419.11,20.55h67.65a4.55,4.55,0,0,1,4.55,4.55v87.82a4.55,4.55,0,0,1-4.55,4.55H470.54a56,56,0,0,1-56-56V25.1A4.55,4.55,0,0,1,419.11,20.55Z" transform="translate(898.49 127.86) rotate(-180)"/><rect class="cls-5" x="167.05" y="10.39" width="76.95" height="96.92"/><rect class="cls-5" x="243.99" y="10.39" width="76.57" height="96.92"/><rect class="cls-5" x="97.42" y="107.31" width="61.71" height="113.54"/><rect class="cls-5" x="97.42" y="12.76" width="61.71" height="91.19"/><rect class="cls-5" x="328.85" y="107.51" width="61.71" height="113.54"/><rect class="cls-5" x="328.85" y="12.96" width="61.71" height="91.19"/></svg>